<?xml version="1.0" encoding="UTF-8"?>
<svg width="800" height="600" viewBox="0 0 800 600" fill="none" xmlns="http://www.w3.org/2000/svg">
  <!-- Background -->
  <rect width="800" height="600" rx="12" fill="#F8FAFC"/>
  
  <!-- Contact Card 1 -->
  <rect x="40" y="40" width="340" height="160" rx="8" fill="white" stroke="#E2E8F0" stroke-width="1"/>
  <circle cx="80" cy="80" r="24" fill="#2563EB"/>
  <rect x="120" y="60" width="160" height="16" rx="4" fill="#1E293B"/>
  <rect x="120" y="84" width="120" height="12" rx="4" fill="#64748B"/>
  <rect x="60" y="120" width="300" height="60" rx="6" fill="#F1F5F9"/>
  
  <!-- Contact Card 2 -->
  <rect x="420" y="40" width="340" height="160" rx="8" fill="white" stroke="#E2E8F0" stroke-width="1"/>
  <circle cx="460" cy="80" r="24" fill="#3B82F6"/>
  <rect x="500" y="60" width="160" height="16" rx="4" fill="#1E293B"/>
  <rect x="500" y="84" width="120" height="12" rx="4" fill="#64748B"/>
  <rect x="440" y="120" width="300" height="60" rx="6" fill="#F1F5F9"/>
  
  <!-- Search Bar -->
  <rect x="40" y="240" width="720" height="60" rx="8" fill="white" stroke="#E2E8F0" stroke-width="1"/>
  <rect x="60" y="260" width="200" height="20" rx="4" fill="#64748B"/>
  <circle cx="720" cy="270" r="16" fill="#2563EB"/>
  
  <!-- Data Grid -->
  <rect x="40" y="340" width="720" height="220" rx="8" fill="white" stroke="#E2E8F0" stroke-width="1"/>
  
  <!-- Grid Header -->
  <rect x="60" y="360" width="680" height="40" rx="4" fill="#F8FAFC"/>
  <rect x="80" y="374" width="100" height="12" rx="2" fill="#64748B"/>
  <rect x="280" y="374" width="100" height="12" rx="2" fill="#64748B"/>
  <rect x="480" y="374" width="100" height="12" rx="2" fill="#64748B"/>
  
  <!-- Grid Rows -->
  <rect x="60" y="420" width="680" height="1" fill="#E2E8F0"/>
  <rect x="80" y="440" width="120" height="12" rx="2" fill="#1E293B"/>
  <rect x="280" y="440" width="120" height="12" rx="2" fill="#1E293B"/>
  <rect x="480" y="440" width="120" height="12" rx="2" fill="#1E293B"/>
  
  <rect x="60" y="480" width="680" height="1" fill="#E2E8F0"/>
  <rect x="80" y="500" width="120" height="12" rx="2" fill="#1E293B"/>
  <rect x="280" y="500" width="120" height="12" rx="2" fill="#1E293B"/>
  <rect x="480" y="500" width="120" height="12" rx="2" fill="#1E293B"/>
  
  <!-- Decorative Elements -->
  <circle cx="720" cy="80" r="24" fill="#2563EB" fill-opacity="0.1"/>
  <circle cx="680" cy="80" r="24" fill="#3B82F6" fill-opacity="0.1"/>
  <circle cx="640" cy="80" r="24" fill="#60A5FA" fill-opacity="0.1"/>
</svg>
