<?xml version="1.0" encoding="UTF-8"?>
<svg width="800" height="600" viewBox="0 0 800 600" fill="none" xmlns="http://www.w3.org/2000/svg">
  <!-- Background -->
  <rect width="800" height="600" rx="12" fill="#F8FAFC"/>
  
  <!-- Dashboard UI Elements -->
  <rect x="40" y="40" width="720" height="520" rx="8" fill="white" stroke="#E2E8F0" stroke-width="1"/>
  
  <!-- Header -->
  <rect x="60" y="60" width="680" height="60" rx="6" fill="#F1F5F9"/>
  <circle cx="100" cy="90" r="16" fill="#2563EB"/>
  <rect x="140" y="82" width="120" height="16" rx="4" fill="#64748B"/>
  
  <!-- Sidebar -->
  <rect x="60" y="140" width="200" height="400" rx="6" fill="#F8FAFC"/>
  <rect x="80" y="160" width="160" height="40" rx="6" fill="#2563EB" fill-opacity="0.1"/>
  <rect x="80" y="220" width="160" height="40" rx="6" fill="#F1F5F9"/>
  <rect x="80" y="280" width="160" height="40" rx="6" fill="#F1F5F9"/>
  
  <!-- Main Content -->
  <rect x="280" y="140" width="460" height="180" rx="6" fill="#F1F5F9"/>
  <rect x="300" y="160" width="200" height="16" rx="4" fill="#64748B"/>
  <rect x="300" y="190" width="420" height="110" rx="6" fill="white"/>
  
  <!-- Stats Cards -->
  <rect x="280" y="340" width="220" height="100" rx="6" fill="white" stroke="#E2E8F0" stroke-width="1"/>
  <rect x="520" y="340" width="220" height="100" rx="6" fill="white" stroke="#E2E8F0" stroke-width="1"/>
  
  <!-- Data Table -->
  <rect x="280" y="460" width="460" height="80" rx="6" fill="white" stroke="#E2E8F0" stroke-width="1"/>
  <rect x="300" y="480" width="420" height="40" rx="4" fill="#F8FAFC"/>
  
  <!-- Decorative Elements -->
  <circle cx="740" cy="90" r="20" fill="#2563EB" fill-opacity="0.1"/>
  <circle cx="700" cy="90" r="20" fill="#2563EB" fill-opacity="0.1"/>
  <circle cx="660" cy="90" r="20" fill="#2563EB" fill-opacity="0.1"/>
</svg>
