<?xml version="1.0" encoding="UTF-8"?>
<svg width="120" height="40" viewBox="0 0 120 40" fill="none" xmlns="http://www.w3.org/2000/svg">
  <path d="M37.8 29.1c-3.9 2.9-9.6 4.4-14.5 4.4-6.9 0-13-2.5-17.7-6.7-.4-.3 0-.8.4-.5 5.3 3.1 11.8 4.9 18.6 4.9 4.6 0 9.6-.9 14.2-2.9.7-.3 1.3.5.6.8z" fill="#FF9900"/>
  <path d="M39.7 26.9c-.5-.6-3.3-.3-4.5-.2-.4 0-.4-.3-.1-.5 2.2-1.5 5.8-1.1 6.2-.6.4.5-.1 4.2-2.2 5.9-.3.3-.6.1-.5-.2.5-1.1 1.5-3.8 1.1-4.4z" fill="#FF9900"/>
  <path d="M35.5 13.3v-1.4c0-.2.2-.3.3-.3l6-.7c.3 0 .6.2.6.5v1.2c0 .3-.3.6-.6.7l-3.1.4c-.3 0-.6.3-.6.6v9.2c0 .3-.3.6-.6.6h-1.7c-.3 0-.6-.3-.6-.6V13.3h.3z" fill="#333"/>
  <path d="M44.5 23.2h-1.7c-.3 0-.5-.2-.5-.5V11.9c0-.3.3-.5.6-.5h1.6c.3 0 .5.2.6.4v1.4h.1c.5-1.2 1.4-1.8 2.6-1.8 1.2 0 2 .6 2.6 1.8.5-1.2 1.6-1.8 2.7-1.8 1.2 0 1.9.6 2.4 1.5.6 1.1.5 2.6.5 3.9v7.8c0 .3-.3.5-.6.5h-1.7c-.3 0-.6-.2-.6-.5v-6.6c0-.5 0-1.8-.1-2.3-.2-.8-.7-1.1-1.4-1.1-.6 0-1.2.4-1.4 1-.2.6-.2 1.7-.2 2.3v6.6c0 .3-.3.5-.6.5h-1.7c-.3 0-.6-.2-.6-.5v-6.6c0-1.4.2-3.4-1.5-3.4-1.7 0-1.7 2-1.7 3.4v6.6c.2.3-.1.6-.4.6z" fill="#333"/>
  <path d="M67.3 11.4c2.5 0 3.9 2.1 3.9 4.9 0 2.6-1.5 4.7-3.9 4.7-2.5 0-3.8-2.1-3.8-4.8-.1-2.7 1.3-4.8 3.8-4.8zm0 1.8c-1.3 0-1.3 1.7-1.3 2.8 0 1.1 0 3.3 1.3 3.3s1.4-2.3 1.4-3.3c0-.9 0-1.8-.2-2.3-.2-.4-.6-.5-1.2-.5z" fill="#333"/>
  <path d="M77.6 23.2h-1.7c-.3 0-.6-.2-.6-.5v-10.7c0-.3.3-.5.6-.5h1.6c.3 0 .5.2.6.4v1.6h.1c.5-1.2 1.2-1.8 2.4-1.8 .8 0 1.6.3 2.1 1.1.5.7.5 1.9.5 2.8v7.2c0 .3-.3.6-.6.6h-1.7c-.3 0-.5-.2-.6-.5v-6.2c0-1.3.2-3.1-1.4-3.1-.5 0-1 .4-1.2.9-.3.7-.3 1.3-.3 2.2v6.1c0 .2-.3.4-.8.4z" fill="#333"/>
  <path d="M86.8 19.6c0 .7 0 1.3.3 1.8.2.4.6.6 1 .6.7 0 1.1-.5 1.3-1.3l1.6.3c-.3 1.5-1.4 2.3-2.9 2.3-1.6 0-2.5-.8-3-2.1-.4-.9-.4-2.1-.4-3.2V16c0-1 .1-2.1.4-3 .5-1.3 1.5-2.1 3-2.1s2.4.8 2.8 2.1c.4 1 .4 2.1.4 3.1v1.7h-4.5v1.8zm2.7-3.6c0-.7 0-1.3-.2-1.8-.2-.4-.6-.7-1.1-.7s-.9.3-1.1.7c-.2.5-.2 1.1-.2 1.8h2.6z" fill="#333"/>
  <path d="M97.9 23.2h-1.7c-.3 0-.6-.2-.6-.5V11.9c0-.3.3-.5.6-.5h1.6c.3 0 .5.2.6.4v1.4h.1c.5-1.2 1.1-1.8 2.3-1.8.8 0 1.5.3 2 1 .4.7.4 1.8.4 2.6v7.5c0 .3-.3.5-.6.5h-1.7c-.3 0-.5-.2-.6-.5v-6.5c0-1.3.2-3.1-1.4-3.1-.5 0-1 .4-1.2.9-.3.7-.3 1.3-.3 2.2v6.3c.1.2-.2.5-.5.5z" fill="#333"/>
</svg>
