<?xml version="1.0" encoding="UTF-8"?>
<svg width="120" height="40" viewBox="0 0 120 40" fill="none" xmlns="http://www.w3.org/2000/svg">
  <path d="M37.8 20.2c0-1.4-.1-2.7-.4-4H20v7.6h10c-.4 2.2-1.7 4-3.6 5.3v4.4h5.8c3.4-3.1 5.6-7.7 5.6-13.3z" fill="#4285F4"/>
  <path d="M20 38c4.8 0 8.9-1.6 11.9-4.3l-5.8-4.4c-1.6 1.1-3.7 1.7-6.1 1.7-4.7 0-8.6-3.1-10-7.4H4v4.5C7 34.5 13.1 38 20 38z" fill="#34A853"/>
  <path d="M10 23.5c-.4-1.1-.6-2.3-.6-3.5s.2-2.4.6-3.5V12H4c-1.3 2.5-2 5.3-2 8.2s.7 5.7 2 8.2l6-4.9z" fill="#FBBC05"/>
  <path d="M20 8.6c2.6 0 5 .9 6.8 2.7l5.1-5.1C28.9 3.2 24.8 1.6 20 1.6 13.1 1.6 7 5.1 4 11.6l6 4.9c1.4-4.2 5.3-7.4 10-7.4z" fill="#EA4335"/>
</svg>
