<?xml version="1.0" encoding="UTF-8"?>
<svg width="120" height="40" viewBox="0 0 120 40" fill="none" xmlns="http://www.w3.org/2000/svg">
  <path d="M20.4 33.6c-7.5 0-13.6-6.1-13.6-13.6S12.9 6.4 20.4 6.4 34 12.5 34 20s-6.1 13.6-13.6 13.6zm0-2.4c6.2 0 11.2-5 11.2-11.2s-5-11.2-11.2-11.2-11.2 5-11.2 11.2 5 11.2 11.2 11.2z" fill="#0668E1"/>
  <path d="M45 18h3v12h-3v-1.5c-.8 1.2-2 1.8-3.6 1.8-3.2 0-5.4-2.4-5.4-5.4s2.2-5.4 5.4-5.4c1.6 0 2.8.6 3.6 1.8V18zm-3.2 9.6c1.8 0 3.2-1.4 3.2-3.2s-1.4-3.2-3.2-3.2-3.2 1.4-3.2 3.2 1.4 3.2 3.2 3.2z" fill="#0668E1"/>
  <path d="M60 24.8c0 3-2.4 5.4-5.4 5.4s-5.4-2.4-5.4-5.4 2.4-5.4 5.4-5.4S60 21.8 60 24.8zm-3 0c0-1.8-1.4-3.2-3.2-3.2s-3.2 1.4-3.2 3.2 1.4 3.2 3.2 3.2 3.2-1.4 3.2-3.2z" fill="#0668E1"/>
  <path d="M72 19.5c-.6-.2-1.2-.3-1.8-.3-1.8 0-3.2 1.4-3.2 3.2v7.8h-3V18h3v1.5c.8-1.2 2-1.8 3.6-1.8.5 0 1 .1 1.4.2v1.6z" fill="#0668E1"/>
  <path d="M85 24.8c0 3-2.4 5.4-5.4 5.4s-5.4-2.4-5.4-5.4 2.4-5.4 5.4-5.4S85 21.8 85 24.8zm-3 0c0-1.8-1.4-3.2-3.2-3.2s-3.2 1.4-3.2 3.2 1.4 3.2 3.2 3.2 3.2-1.4 3.2-3.2z" fill="#0668E1"/>
  <path d="M87 13h3v17h-3V13z" fill="#0668E1"/>
  <path d="M102 24.8c0 3-2.4 5.4-5.4 5.4s-5.4-2.4-5.4-5.4 2.4-5.4 5.4-5.4 5.4 2.4 5.4 5.4zm-3 0c0-1.8-1.4-3.2-3.2-3.2s-3.2 1.4-3.2 3.2 1.4 3.2 3.2 3.2 3.2-1.4 3.2-3.2z" fill="#0668E1"/>
</svg>
